<svg width="20" height="20" viewBox="0 0 20 20" fill="none" xmlns="http://www.w3.org/2000/svg">
<path fill-rule="evenodd" clip-rule="evenodd" d="M4.16671 3.33499C3.70739 3.33499 3.33504 3.70734 3.33504 4.16666V12.5C3.33504 12.9593 3.70739 13.3317 4.16671 13.3317H9.99581C9.99722 13.3317 9.99863 13.3316 10 13.3316C10.0014 13.3316 10.0029 13.3317 10.0043 13.3317H15.8334C16.2927 13.3317 16.665 12.9593 16.665 12.5V4.16666C16.665 3.70734 16.2927 3.33499 15.8334 3.33499H4.16671ZM10.835 15.0017H15.8334C17.215 15.0017 18.335 13.8816 18.335 12.5V4.16666C18.335 2.78503 17.215 1.66499 15.8334 1.66499H4.16671C2.78507 1.66499 1.66504 2.78503 1.66504 4.16666V12.5C1.66504 13.8816 2.78507 15.0017 4.16671 15.0017H9.16504V16.665H6.66679C6.20563 16.665 5.83179 17.0388 5.83179 17.5C5.83179 17.9612 6.20563 18.335 6.66679 18.335H13.3335C13.7946 18.335 14.1685 17.9612 14.1685 17.5C14.1685 17.0388 13.7946 16.665 13.3335 16.665H10.835V15.0017Z" fill="currentColor"/>
</svg>
