<svg width="20" height="20" viewBox="0 0 20 20" fill="none" xmlns="http://www.w3.org/2000/svg">
<path fill-rule="evenodd" clip-rule="evenodd" d="M1.66507 4.16667C1.66507 3.70551 2.03891 3.33167 2.50007 3.33167H17.5001C17.9612 3.33167 18.3351 3.70551 18.3351 4.16667V15.8333C18.3351 16.2945 17.9612 16.6683 17.5001 16.6683H2.50007C2.03891 16.6683 1.66507 16.2945 1.66507 15.8333V4.16667ZM3.33507 5.00166V14.9983H16.6651V5.00166H3.33507Z" fill="#3D3D42"/>
<path fill-rule="evenodd" clip-rule="evenodd" d="M12.7128 8.60808C12.9949 8.29453 13.4667 8.2407 13.8122 8.48261L17.9789 11.3993C18.3567 11.6637 18.4486 12.1844 18.1841 12.5622C17.9197 12.94 17.399 13.0318 17.0212 12.7674L13.4598 10.2744L10.2041 13.8919C9.9412 14.184 9.51028 14.2533 9.16913 14.0583L6.7452 12.6732L3.02169 15.652C2.66159 15.9401 2.13613 15.8817 1.84804 15.5216C1.55996 15.1615 1.61835 14.6361 1.97845 14.348L6.14512 11.0146C6.41259 10.8007 6.78361 10.7717 7.08101 10.9417L9.41313 12.2743L12.7128 8.60808Z" fill="#3D3D42"/>
<path fill-rule="evenodd" clip-rule="evenodd" d="M7.91682 7.33167C7.59373 7.33167 7.33182 7.59358 7.33182 7.91667C7.33182 8.23975 7.59373 8.50167 7.91682 8.50167C8.2399 8.50167 8.50182 8.23975 8.50182 7.91667C8.50182 7.59358 8.2399 7.33167 7.91682 7.33167ZM6.00182 7.91667C6.00182 6.85904 6.85919 6.00167 7.91682 6.00167C8.97444 6.00167 9.83182 6.85904 9.83182 7.91667C9.83182 8.97429 8.97444 9.83167 7.91682 9.83167C6.85919 9.83167 6.00182 8.97429 6.00182 7.91667Z" fill="#3D3D42"/>
</svg>
