<svg width="20" height="20" viewBox="0 0 20 20" fill="none" xmlns="http://www.w3.org/2000/svg">
<path fill-rule="evenodd" clip-rule="evenodd" d="M18.0904 3.09043C18.4165 2.76434 18.4165 2.23565 18.0904 1.90956C17.7643 1.58347 17.2357 1.58347 16.9096 1.90956L1.90957 16.9096C1.58348 17.2356 1.58348 17.7643 1.90957 18.0904C2.23565 18.4165 2.76435 18.4165 3.09043 18.0904L18.0904 3.09043ZM13.5368 3.12996C13.681 3.27416 13.8155 3.42627 13.9398 3.58526L12.7457 4.77941C12.6312 4.61278 12.5009 4.45581 12.3559 4.31082C11.7311 3.68602 10.8837 3.335 10.0001 3.335C9.11647 3.335 8.26904 3.68602 7.64424 4.31082C7.01943 4.93563 6.66841 5.78306 6.66841 6.66667V8.33167H9.19344L7.52344 10.0017H5.83562L5.83341 10.0017L5.8312 10.0017H4.16664C3.70733 10.0017 3.33498 10.374 3.33498 10.8333V14.1901L1.66512 15.86L1.66498 15.8333V10.8333C1.66498 9.4517 2.78501 8.33167 4.16664 8.33167H4.99841V6.66667C4.99841 5.34014 5.52537 4.06795 6.46337 3.12996C7.40136 2.19196 8.67356 1.665 10.0001 1.665C11.3266 1.665 12.5988 2.19196 13.5368 3.12996ZM12.4732 10.0017L15.0017 7.4731V8.33167H15.8333C17.2149 8.33167 18.335 9.4517 18.335 10.8333V15.8333C18.335 17.215 17.2149 18.335 15.8333 18.335H4.16664L4.13999 18.3349L5.80985 16.665H15.8333C16.2926 16.665 16.665 16.2926 16.665 15.8333V10.8333C16.665 10.374 16.2926 10.0017 15.8333 10.0017H14.169L14.1667 10.0017L14.1645 10.0017H12.4732ZM7.52748 15.2233C7.40048 15.2879 7.26007 15.3364 7.10626 15.3686L8.29187 14.183C8.26964 14.3705 8.20595 14.5484 8.10081 14.7167C7.97192 14.9256 7.78081 15.0944 7.52748 15.2233ZM5.90081 11.11C6.10755 11.0048 6.33972 10.944 6.59733 10.9278L5.13221 12.3929C5.12906 12.3529 5.12748 12.312 5.12748 12.27C5.12748 12.0211 5.19637 11.7967 5.33415 11.5967C5.47192 11.3922 5.66081 11.23 5.90081 11.11ZM9.63362 13.4767C9.49007 13.4187 9.35681 13.3401 9.23383 13.241L10.0538 12.4211C10.0662 12.4288 10.0795 12.4363 10.0936 12.4433C10.2092 12.4967 10.3647 12.5611 10.5603 12.6367L11.087 12.8433C11.3581 12.95 11.567 13.0989 11.7136 13.29C11.8603 13.4811 11.9336 13.7278 11.9336 14.03C11.9336 14.2744 11.867 14.5033 11.7336 14.7167C11.6047 14.9256 11.4136 15.0944 11.1603 15.2233C10.907 15.3522 10.6003 15.4167 10.2403 15.4167C9.96918 15.4167 9.68696 15.3656 9.39362 15.2633C9.10029 15.1611 8.83585 15.0056 8.60029 14.7967L9.25362 14.01C9.40918 14.1344 9.57585 14.2367 9.75362 14.3167C9.93585 14.3922 10.107 14.43 10.267 14.43C10.4403 14.43 10.5647 14.4033 10.6403 14.35C10.7203 14.2967 10.7603 14.2211 10.7603 14.1233C10.7603 14.0211 10.707 13.9433 10.6003 13.89C10.4981 13.8367 10.3558 13.7744 10.1736 13.7033L9.63362 13.4767ZM10.8136 11.99C10.7318 11.9573 10.6449 11.9346 10.5529 11.9219L11.3218 11.153C11.5016 11.2418 11.6655 11.3585 11.8136 11.5033L11.2403 12.2233C11.0936 12.1211 10.9514 12.0433 10.8136 11.99ZM12.63 11.0033V15.3367H15.4166V14.3767H13.7766V11.0033H12.63Z" fill="currentColor"/>
</svg>
