<svg width="20" height="20" viewBox="0 0 20 20" fill="none" xmlns="http://www.w3.org/2000/svg">
<path fill-rule="evenodd" clip-rule="evenodd" d="M9.59032 5.00008V1.66675H11.2603V5.00008H9.59032ZM16.9563 3.77474L14.5993 6.13176L13.4184 4.95089L15.7755 2.59387L16.9563 3.77474ZM7.18323 7.8674L4.82621 5.51038L6.00708 4.32951L8.3641 6.68654L7.18323 7.8674ZM11.8265 7.72941C12.1601 8.04783 12.1724 8.57638 11.854 8.90996L3.10398 18.0766C2.78556 18.4102 2.25701 18.4225 1.92343 18.1041C1.58985 17.7857 1.57756 17.2571 1.89598 16.9235L10.646 7.75687C10.9644 7.42329 11.4929 7.41099 11.8265 7.72941ZM14.6512 8.39098H17.9845V10.061H14.6512V8.39098ZM14.0102 14.6944L11.6532 12.3374L12.8341 11.1565L15.1911 13.5135L14.0102 14.6944Z" fill="currentColor"/>
</svg>
